<?xml version="1.0" encoding="UTF-8"?>
<svg id="Layer_1" xmlns="http://www.w3.org/2000/svg" version="1.1" xmlns:xlink="http://www.w3.org/1999/xlink" viewBox="0 0 538 165" width="538" height="165">
  <!-- Generator: Adobe Illustrator 29.2.1, SVG Export Plug-In . SVG Version: 2.1.0 Build 116)  -->
  <defs>
    <style>
      .st0 {
        fill: url(#linear-gradient);
        isolation: isolate;
      }

      .st1 {
        fill: #4d4e4e;
      }
    </style>
    <linearGradient id="linear-gradient" x1="7" y1="159.9" x2="159.2" y2="7.7" gradientUnits="userSpaceOnUse">
      <stop offset="0" stop-color="#693a95"/>
      <stop offset="1" stop-color="#cfa357"/>
    </linearGradient>
  </defs>
  <g>
    <g>
      <path class="st1" d="M257.8,15.5c13.8,0,24.9,3.6,33.3,10.9,8.3,7.3,12.5,16.6,12.5,28s-4.3,20.2-13.2,29.7c-2.4,2.7-6.4,5.1-11.7,7-5.9,2.2-12,3.2-18.3,3.2h-53.5V15.5h50.8ZM261.3,80.5c7.5,0,13.7-2.3,18.5-7,4.9-4.7,7.3-10.7,7.3-18s-2.6-14-7.7-18.9c-5.1-4.7-12-7.1-20.4-7.1h-36.8v51.1h39.1Z"/>
      <path class="st1" d="M417.2,94.3h-17.6l-20.6-29h-39.1v29h-15.3V15.5h63.6c8.3,0,15.1,2.3,19.9,6.8,5,4.5,7.4,10.6,7.4,18.1,0,13-6.5,21.1-19.5,23.9l21.2,30ZM386,51.5c9.3,0,13.9-3.6,13.9-10.7s-5-11.4-14.8-11.4h-45.1v22.1h46Z"/>
      <path class="st1" d="M534.1,34.6l-14,4.9c-8.4-8.3-19.2-12.5-32.2-12.5s-20.2,2.6-26.8,7.8c-6.6,5.1-10,11.9-10,20s3.3,15.2,10,20.3c6.6,5.1,15.7,7.7,26.9,7.7s23.9-4.2,32.2-12.8l13.2,7c-11.6,13-26.8,19.5-45.7,19.5s-28.3-4-38-11.7c-9.7-7.8-14.6-17.7-14.6-30s5.5-23.1,16.5-31.2c9.6-7,21.3-10.5,35.2-10.5,19.8-.1,35.5,7.1,47.4,21.4Z"/>
    </g>
    <g>
      <path class="st1" d="M242.6,124.4c-4.6-2.4-9.7-3.7-15.1-3.7-7.9,0-11.9,1.4-11.9,4.2s1.5,2.7,4.5,3.2c4.1.4,8,.8,12.1,1.1,5.9.6,10,1.7,12.4,3.1,2.7,1.7,4.1,4.2,4.1,7.5s-1.7,6.8-5.1,8.8c-3.4,2-8.3,3.1-14.8,3.1s-16.5-2-22-6.3l3.7-4.9c4.9,3.4,10.9,5.1,18,5.1s7.1-.5,9.3-1.5c2.2-1,3.3-2.4,3.3-4.1s-1.4-3.2-4.1-4c-1.5-.4-3.8-.8-7-.9-5-.3-7.9-.4-9.1-.5-4.3-.4-7.7-1.4-9.7-2.8-2-1.5-3.1-3.6-3.1-6.4s1.7-6.1,5-8c3.3-2,8-2.9,14-2.9s14.6,1.8,19.5,5.2l-4.2,4.6Z"/>
      <path class="st1" d="M295,115.6l-20.3,21.6v14h-6.9v-14l-20-21.6h8.4l15.2,16.2,15.3-16.2h8.3Z"/>
      <path class="st1" d="M330.9,124.4c-4.6-2.4-9.7-3.7-15.1-3.7-7.9,0-11.9,1.4-11.9,4.2s1.5,2.7,4.5,3.2c4.1.4,8,.8,12.1,1.1,5.9.6,10,1.7,12.4,3.1,2.7,1.7,4.1,4.2,4.1,7.5s-1.7,6.8-5.1,8.8c-3.4,2-8.3,3.1-14.8,3.1s-16.5-2-22-6.3l3.7-4.9c4.9,3.4,10.9,5.1,18,5.1s7.1-.5,9.3-1.5c2.2-1,3.3-2.4,3.3-4.1s-1.4-3.2-4.1-4c-1.5-.4-3.8-.8-7-.9-5-.3-7.9-.4-9.1-.5-4.3-.4-7.7-1.4-9.7-2.8-2-1.5-3.1-3.6-3.1-6.4s1.7-6.1,5-8c3.3-2,8-2.9,14-2.9s14.6,1.8,19.5,5.2l-4.2,4.6Z"/>
      <path class="st1" d="M378.5,121.9h-17v29.4h-6.9v-29.4h-17v-6.3h41v6.3h-.1Z"/>
      <path class="st1" d="M423.7,151.3h-38.3v-35.6h36.9v6.3h-30v7.7h20.9v6.3h-20.9v9.2h31.4v6.3Z"/>
      <path class="st1" d="M482.6,151.3h-6.9v-29.2c-.1,0-18,24.3-18,24.3l-17.9-24.5v.3c-.1,0-.1,29.2-.1,29.2h-6.9v-35.6h10.5l14.6,20.2,14.3-20.2h10.5v35.6h0Z"/>
      <path class="st1" d="M526.9,124.4c-4.6-2.4-9.6-3.7-15.1-3.7-7.9,0-11.9,1.4-11.9,4.2s1.5,2.7,4.5,3.2c4.1.4,8,.8,12.1,1.1,5.9.6,10,1.7,12.4,3.1,2.7,1.7,4.1,4.2,4.1,7.5s-1.7,6.8-5.1,8.8c-3.4,2-8.4,3.1-14.8,3.1-9.2,0-16.5-2-22-6.3l3.7-4.9c4.9,3.4,10.9,5.1,18,5.1s7.1-.5,9.3-1.5c2.2-1,3.3-2.4,3.3-4.1s-1.4-3.2-4.1-4c-1.5-.4-3.8-.8-7-.9-5-.3-7.9-.4-9.1-.5-4.3-.4-7.7-1.4-9.7-2.8-2-1.5-3.2-3.6-3.2-6.4s1.7-6.1,5-8c3.3-2,8-2.9,14-2.9s14.6,1.8,19.5,5.2l-4.1,4.6Z"/>
    </g>
  </g>
  <path class="st0" d="M150.4,2H18.5c-8,0-14.6,6.5-14.6,14.6v131.9c0,8,6.5,14.6,14.6,14.6h131.9c8,0,14.6-6.5,14.6-14.6V16.6c0-8-6.5-14.6-14.6-14.6ZM110.2,127.1c-20.7,0-18.1-21.4-18.1-21.4,0-7.3,4.1-52.9,4.1-52.9h-19.7c-.5,40.1-8.3,64.7-8.3,64.7-2.9,10.9-11.9,9.6-11.9,9.6-10.1,0-10.1-8.6-10.1-8.6,0-4.2,3.2-8.3,3.2-8.3,2.3-2.3,7-10.5,7-10.5,10.3-15.6,11.5-46.9,11.5-46.9h-8c-11.4,0-18,12.9-18,12.9h-3.1c2-9.4,7.4-17,7.4-17,7-11.5,25.4-9.3,25.4-9.3h58.7v13.3h-21.7l-2.2,40.3c-1.3,22,10.2,19.7,10.2,19.7,10.1,0,10.9-11.5,10.9-11.5h3.2c-2.7,28.5-20.6,25.8-20.6,25.8Z"/>
</svg>